<?xml version="1.0" standalone="no"?>
<!DOCTYPE svg PUBLIC "-//W3C//DTD SVG 20010904//EN"
 "http://www.w3.org/TR/2001/REC-SVG-20010904/DTD/svg10.dtd">
<svg version="1.0" xmlns="http://www.w3.org/2000/svg"
 width="1024.000000pt" height="1024.000000pt" viewBox="0 0 1024.000000 1024.000000"
 preserveAspectRatio="xMidYMid meet">
<metadata>
Created by potrace 1.14, written by Peter Selinger 2001-2017
</metadata>
<g transform="translate(0.000000,1024.000000) scale(0.100000,-0.100000)"
fill="#000000" stroke="none">
<path d="M8667 8612 c-16 -3 -17 -42 -17 -478 l0 -474 33 -1 c41 -1 851 -1
895 0 l32 1 0 475 0 475 -32 1 c-146 2 -898 3 -911 1z"/>
<path d="M1950 7198 c-509 -46 -905 -296 -1119 -707 -36 -70 -97 -224 -106
-271 -2 -8 -8 -33 -14 -55 -5 -22 -13 -55 -16 -72 -3 -18 -7 -46 -10 -61 -3
-16 -7 -54 -10 -85 l-6 -57 463 0 c255 0 468 4 475 8 6 4 15 21 19 37 21 88
92 188 169 240 123 81 257 103 609 99 127 -1 245 -5 261 -8 211 -45 314 -106
386 -231 29 -50 56 -128 63 -182 2 -15 7 -50 10 -78 10 -71 14 -238 7 -255 -5
-13 -101 -15 -726 -15 -648 -1 -871 -5 -893 -19 -4 -2 -23 -7 -42 -10 -62 -9
-173 -47 -245 -84 -200 -100 -345 -245 -452 -451 -35 -66 -99 -246 -108 -305
-3 -17 -8 -38 -10 -46 -20 -69 -27 -361 -13 -491 11 -97 53 -266 89 -356 159
-403 480 -649 900 -689 72 -7 2384 -12 2425 -6 l21 4 -2 1446 c-2 796 -5 1458
-8 1472 -3 14 -8 41 -11 60 -54 343 -228 655 -480 858 -190 155 -408 251 -656
292 -30 5 -73 12 -95 16 -57 9 -773 11 -875 2z m1145 -2478 l40 0 0 -413 0
-412 -695 -3 -694 -2 -54 27 c-118 60 -183 196 -183 382 0 113 14 179 53 258
31 64 88 124 138 146 42 19 543 25 1395 17z"/>
<path d="M4660 4416 l0 -2791 465 1 c256 1 468 4 471 7 3 3 5 348 5 766 0 745
0 761 19 751 10 -5 25 -10 34 -10 8 0 27 -5 43 -11 15 -6 28 -10 28 -9 0 1 12
-3 26 -8 14 -6 43 -13 65 -16 21 -4 55 -11 74 -16 19 -4 64 -11 100 -15 36 -4
79 -8 95 -11 39 -6 535 -6 600 0 226 20 421 70 591 151 338 162 572 432 699
805 14 41 27 84 29 95 19 92 36 191 45 245 10 69 10 1539 -1 1575 -3 11 -9 43
-12 70 -11 77 -55 254 -76 300 -5 11 -23 53 -40 94 -83 201 -252 411 -433 538
-187 131 -461 235 -678 258 -30 3 -65 9 -79 12 -14 4 -485 7 -1047 8 l-1023 2
0 -2791z m2002 1839 c132 -28 270 -115 348 -220 48 -65 94 -182 107 -275 9
-57 9 -1188 0 -1255 -30 -247 -207 -444 -450 -500 -91 -21 -532 -21 -622 0
-176 41 -323 166 -394 333 -48 115 -49 138 -50 1064 l0 868 494 0 c406 0 507
-3 567 -15z"/>
<path d="M8652 5126 l3 -2080 465 -1 c256 0 471 1 478 3 9 3 12 428 12 2081
l0 2077 -480 0 -480 0 2 -2080z"/>
</g>
</svg>
